<?xml version="1.0" encoding="UTF-8"?>
<svg id="Layer_1" xmlns="http://www.w3.org/2000/svg" version="1.1" viewBox="0 0 21 21">
  <!-- Generator: Adobe Illustrator 29.7.1, SVG Export Plug-In . SVG Version: 2.1.1 Build 8)  -->
  <path d="M16.570491,20.4900041h.3500779c.4701035-.0199918.9001991-.2598871,1.1702594-.6397209l2.1404736-3.0886557c.2300505-.3298563.3200706-.7396778.240053-1.1395034s-.3100682-.7396778-.6401412-.9695773l-4.6410277-3.0886557c-.2453031-.1647947-.5346129-.2518788-.8301839-.2498912-.4100907,0-.8101799.1599302-1.1002442.4797907l-1.470326,1.5893083c-.6901525-.4298132-1.6103565-1.0695341-2.3605227-1.8192078s-1.3903084-1.6792693-1.820403-2.3589728l1.5903525-1.4693607c.5401196-.4997825.6401422-1.3194258.2300505-1.9291601L6.3382244,1.1684146c-.2200485-.3298563-.5701265-.5697519-.9702152-.6397214-.393734-.0793282-.8027692.0074893-1.1302505.2398956L1.1470741,2.9076573c-.3900863.2698825-.6201373.6996952-.6401417,1.169491-.0300066.6896998-.1600354,6.8969974,4.681037,11.7348917,4.3509639,4.3481077,9.812174,4.6879599,11.3825216,4.6879599v-.0099959ZM5.3780116,8.5452037c-.1600353.1499344-.2100466.3898307-.1100245.5897434.0500113.089961,1.150255,2.2390252,2.7406075,3.8383294,1.600355,1.5993033,3.750831,2.698825,3.8408511,2.7488025.2000441.0999569.4400971.0599734.5901309-.1099527l1.9904408-2.1490642,3.860856,2.5688815-1.7003775,2.4589307c-1.1602569,0-6.1313586-.2398953-9.9922137-4.0982165C2.7374271,10.5343367,2.4973732,5.5565044,2.4973732,4.4070047l2.4605452-1.6992601,2.5705692,3.8583202-2.1504766,1.9891339.0000005-.0099949Z"/>
  <path d="M13.2097467,9.2049164l4.0008855-3.9982596,2.2905084,2.2890036V1.498271h-6.0013297l2.2905084,2.2890036-4.0008865,3.9982596,1.4203138,1.4193822Z"/>
</svg>