<?xml version="1.0" encoding="UTF-8"?>
<svg id="Layer_1" xmlns="http://www.w3.org/2000/svg" version="1.1" viewBox="0 0 19 21">
  <!-- Generator: Adobe Illustrator 29.7.1, SVG Export Plug-In . SVG Version: 2.1.1 Build 8)  -->
  <path d="M11.79,8.79l-2.29,2.3000002-2.29-2.3000002-1.4200001,1.4200001,2.3000002,2.29-2.3000002,2.2900009,1.4200001,1.4199982,2.29-2.2999992,2.29,2.2999992,1.4200001-1.4199982-2.3000002-2.2900009,2.3000002-2.29-1.4200001-1.4200001Z"/>
  <path d="M16.5,2.5h-2V.5h-2v2h-6V.5h-2v2h-2c-1.0999999,0-2,.9000001-2,2v14c0,1.1000004.9000001,2,2,2h14c1.1000004,0,2-.8999996,2-2V4.5c0-1.0999999-.8999996-2-2-2ZM2.5,18.5V6.5h14v-2,14H2.5Z"/>
</svg>