<?xml version="1.0" encoding="UTF-8"?>
<svg id="Layer_1" xmlns="http://www.w3.org/2000/svg" version="1.1" viewBox="0 0 22 25">
  <!-- Generator: Adobe Illustrator 29.7.1, SVG Export Plug-In . SVG Version: 2.1.1 Build 8)  -->
  <defs>
    <style>
      .st0 {
        fill: #989898;
      }
    </style>
  </defs>
  <path class="st0" d="M20.6.5H1.4C.7400001.5.2,1.0400001.2,1.7v2.4c0,.2639997.0839999.5159998.2400001.7199999l6.9599999,9.276v9.2040001c0,.4200005.2160004.8040001.5640003,1.0200005.1919998.1200005.4080002.1799995.6359997.1799995.1799995,0,.3720005-.0480011.5399998-.1320007l4.8-2.4c.4080002-.2040001.6600002-.6240005.6600002-1.0679993v-6.8040001l6.9599991-9.276c.155999-.2040001.2400009-.4560001.2400009-.7199999V1.7c0-.6599999-.5400009-1.2-1.2-1.2ZM19.4,3.7040001l-6.9600002,9.2759995c-.1560001.2040001-.2399998.4560001-.2399998.7200005v6.4560013l-2.4,1.2v-7.6560001c0-.2640003-.0839996-.5160004-.2399998-.7200005L2.6,3.7040007v-.8040001h16.8v.8039995Z"/>
</svg>