<?xml version="1.0" encoding="UTF-8"?>
<svg id="Layer_1" xmlns="http://www.w3.org/2000/svg" xmlns:xlink="http://www.w3.org/1999/xlink" version="1.1" viewBox="0 0 185 109">
  <!-- Generator: Adobe Illustrator 29.7.1, SVG Export Plug-In . SVG Version: 2.1.1 Build 8)  -->
  <defs>
    <style>
      .st0 {
        fill: url(#radial-gradient);
        fill-rule: evenodd;
      }

      .st1 {
        fill: url(#radial-gradient1);
      }
    </style>
    <radialGradient id="radial-gradient" cx="121.6780206" cy="65.9711364" fx="121.6780206" fy="65.9711364" r="85.8880581" gradientUnits="userSpaceOnUse">
      <stop offset=".126374" stop-color="#f5d30c"/>
      <stop offset=".201388" stop-color="#f4cc0d"/>
      <stop offset=".3084832" stop-color="#f2b913"/>
      <stop offset=".4348521" stop-color="#f09a1c"/>
      <stop offset=".5758883" stop-color="#ec6f29"/>
      <stop offset=".7274886" stop-color="#e83939"/>
      <stop offset=".736264" stop-color="#e8363a"/>
      <stop offset=".7759631" stop-color="#e0343b"/>
      <stop offset=".837493" stop-color="#ca2f40"/>
      <stop offset=".9131656" stop-color="#a62649"/>
      <stop offset=".9993537" stop-color="#751b54"/>
      <stop offset="1" stop-color="#751b55"/>
    </radialGradient>
    <radialGradient id="radial-gradient1" cx="172.73525" cy="25.5621968" fx="172.73525" fy="25.5621968" r="49.6423017" xlink:href="#radial-gradient"/>
  </defs>
  <g>
    <path d="M2.1553792,39.6672204h2.8931418v26.1925665c0,1.1127069.1981142,1.8408545.5956392,2.1831461.3967471.3422916.8788077.5131781,1.4464412.5131781.5105808,0,1.0211699-.05653,1.5317548-.1701085.5105849-.1130599.9499888-.2268978,1.3188598-.3404764l.5105849,2.3400297c-.5391092.2274165-1.1985391.4107499-1.9782897.5531121-.7805285.1415842-1.4539613.2126357-2.0210762.2126357-1.304857,0-2.3472904-.3853373-3.127041-1.1547155-.7805285-.7696374-1.1700149-1.8252958-1.1700149-3.1656785v-27.1636892Z"/>
    <path d="M11.0469216,43.9217491v-4.2545287h2.8931418v4.2545287h-2.8931418ZM11.0469216,70.7260321v-22.1667508h2.8931418v22.1667508h-2.8931418Z"/>
    <path d="M26.6608631,71.1513035c-1.5037491,0-2.8931418-.3122114-4.1694745-.9358563s-2.3759444-1.4679641-3.2974089-2.5316611c-.9219831-1.0634377-1.637943-2.2759797-2.1485279-3.637626-.5104553-1.361387-.7658774-2.7655604-.7658774-4.2120016,0-1.5595012.2480317-3.0274653.7446138-4.403633.4959338-1.3753898,1.2052813-2.6019346,2.1272644-3.6801531.9214645-1.0776998,2.0062954-1.9212411,3.2548817-2.5314018,1.2478084-.609642,2.6377197-.914852,4.1694745-.914852,1.8999776,0,3.5525717.4753185,4.9566154,1.4251777,1.4040438.9506371,2.5880614,2.1346548,3.5527013,3.552831v-4.6375323h2.5951925v22.1916447c0,2.0368942-.4891917,3.7553535-1.4677096,5.1561559-.9786379,1.3992465-2.2974977,2.4530896-3.956834,3.1610109-1.6593362.7066247-3.4675174,1.060326-5.4246732,1.060326-2.5247894,0-4.5671291-.454055-6.1266303-1.361387-1.5602791-.9081099-2.8366118-2.127394-3.8292574-3.6591488l1.7869176-1.4039141c.8789374,1.3893926,2.0489522,2.425084,3.5101742,3.1057775,1.4605692.6809528,3.0134625,1.0211699,4.6587958,1.0211699,1.4465709,0,2.7721728-.2577559,3.9779727-.7724899,1.2052813-.5152526,2.1699212-1.2877424,2.8931418-2.3174696.7234799-1.0302458,1.0849606-2.3260269,1.0849606-3.8876025v-4.3821101c-.850802,1.3899113-2.0142044,2.5033961-3.488781,3.3396767-1.4750952.8362806-3.0207232,1.2550691-4.6375323,1.2550691ZM27.4692677,68.7262195c.8789374,0,1.7231269-.1555871,2.5315315-.4680578.8082749-.3116928,1.5530184-.7297034,2.2337119-1.2550691.6806935-.5243285,1.2478084-1.1127069,1.7018634-1.7656541.453277-.6521692.7372235-1.3188598.850802-1.9995533v-6.8499806c-.425401-1.0776998-1.0356913-2.0348197-1.8294448-2.8718782-.7944017-.8362806-1.6951213-1.4892277-2.70164-1.9570262-1.007167-.4680578-2.0494708-.7022164-3.1271707-.7022164-1.2484567,0-2.3612933.2626829-3.339936.7872706-.9785131.5251064-1.8014391,1.2198027-2.4676111,2.0846076-.6668203.8655828-1.184666,1.8369648-1.5530184,2.9144053-.368871,1.0784778-.5531121,2.1559183-.5531121,3.2336182,0,1.1912784.212895,2.3187661.638296,3.3824631s1.0137795,2.0143341,1.7656541,2.8506146c.7510966.8367992,1.6306823,1.4824856,2.6378493,1.9357626,1.0065188.454055,2.0774765.6806935,3.2122249.6806935Z"/>
    <path d="M60.1446292,70.7260321h-2.8931418v-12.3020112c0-2.4795395-.4400521-4.3468437-1.3189895-5.6006163-.879456-1.2537726-2.1419155-1.8815664-3.7864709-1.8815664-1.0783481,0-2.1486576.2746112-3.2123546.8230557-1.063697.5492224-1.9995533,1.2944845-2.8080875,2.2370829-.8082749.9425984-1.3826556,2.0190017-1.7231269,3.2289506v13.4951048h-2.8931418v-31.0588118h2.8931418v14.0095794c.8789374-1.6352202,2.1061305-2.9395586,3.6804124-3.9127558,1.5741523-.9731972,3.2546224-1.4599254,5.0416697-1.4599254,1.2763327,0,2.3612933.2261199,3.2547521.6768038.8934588.4512025,1.6168091,1.1067428,2.1699212,1.9671393.5531121.8601372.9572495,1.8618587,1.212542,3.0041272.2551628,1.1420092.3828739,2.4323447.3828739,3.8702286v12.9036146Z"/>
    <path d="M74.1849371,69.8324437c-.2272868.0850543-.5816364.2414193-1.063697.4680578-.4825793.2274165-1.0635674.4255307-1.7443905.5956392-.6806935.1701085-1.4185652.2551628-2.2123186.2551628-.822926,0-1.5954159-.1568836-2.3187661-.469873s-1.2977259-.7903824-1.7231269-1.4314011c-.425401-.6407595-.6381663-1.4311418-.6381663-2.3711471v-15.937044h-3.06338v-2.2972433h3.06338v-7.4881469h2.8931418v7.4881469h5.1054604v2.2972433h-5.1054604v15.135252c.0564003.7979024.3470888,1.3966534.8721952,1.7957342.5245878.3988216,1.1274877.5982323,1.8081812.5982323.7937534,0,1.516974-.1343235,2.1699212-.4042671.6521692-.2691657,1.0489162-.4605378,1.1912784-.5743756l.7657478,2.3400297Z"/>
    <path d="M76.3118125,50.8567839h-3.0632503v-2.2975026h3.0632503v-.5956392c0-1.0489162.1555871-2.0846076.4680578-3.1057775.3118224-1.0211699.787141-1.9570262,1.425437-2.8080875.6381663-.850802,1.4464412-1.5317548,2.425084-2.0420804.9785131-.5105849,2.1485279-.7660071,3.5100446-.7660071,1.0489162,0,1.9922926.1138379,2.8293511.3404764.8362806.2274165,1.5667619.4965821,2.1910551.8082749.6235091.3124707,1.091573.5956392,1.4040438.8510613l-1.3188598,2.0846076c-.454055-.4252714-1.1274877-.7870113-2.0210762-1.0849606-.8933292-.2976899-1.8652298-.4465349-2.9144053-.4465349-1.1912784,0-2.1631791.3049507-2.9144053.9145927-.7517449.61042-1.304857,1.3829098-1.6593362,2.3187661-.3549979.9361156-.5317189,1.8867527-.5317189,2.8506146v.6806935h11.1045093v22.1667508h-2.8931418v-19.8692482h-8.2113675v19.8692482h-2.8932714v-19.8692482Z"/>
    <path d="M105.2007031,51.1122061c-1.9290205.0570486-3.6236231.5956392-5.0841968,1.6168091-1.461222,1.0209106-2.4890043,2.425084-3.0846435,4.2120016v13.7850154h-2.8931418v-22.0814372h2.7230332v5.2331715c.7657478-1.5597605,1.7796569-2.8220903,3.0419868-3.7867302,1.2618112-.963862,2.6019346-1.5029712,4.0206295-1.6168091.2831685-.0277464.5318485-.0425271.7444842-.0425271.212895,0,.3894863.0147808.5318485.0425271v2.637979Z"/>
    <path d="M115.4121426,71.1513035c-1.5888034,0-3.0632503-.3036541-4.4248966-.9112217-1.361387-.6075676-2.5386625-1.441255-3.5313081-2.5010623-.9931642-1.059548-1.7653947-2.2814252-2.3187661-3.6661503-.5531121-1.384725-.8295385-2.8685072-.8295385-4.4513464,0-2.055046.4745406-3.9410208,1.425437-5.6587021.9498591-1.7171628,2.2614582-3.0894408,3.9353159-4.1170935,1.6733391-1.0276527,3.5738353-1.5416087,5.7012293-1.5416087,2.183924,0,4.090903.5212167,5.7224928,1.5636502,1.6305526,1.0421741,2.9144053,2.4157487,3.8502616,4.1202052.9361156,1.7044565,1.4041734,3.5707235,1.4041734,5.5988011v.6547623c0,.2115984-.0147808.3736683-.0425271.4859503h-18.9756597c.1415842,1.5810241.5883785,2.9849382,1.3401234,4.2122609.7514856,1.2270634,1.729869,2.2010386,2.9359282,2.9203695,1.2052813.7193309,2.5168804,1.0789964,3.9353159,1.0789964,1.4467005,0,2.8148296-.3684821,4.1059431-1.1062241,1.2903355-.7372235,2.1909254-1.7018634,2.7015104-2.8931418l2.5101382.6806935c-.4537957,1.0496942-1.1487513,1.9995533-2.0846076,2.8506146-.9361156.850802-2.0355976,1.5102319-3.2974089,1.9782897-1.2623299.4680578-2.6167154.701957-4.0631566.701957ZM107.2432955,58.6428801h16.3802145c-.1135786-1.5994352-.54637-3.0028307-1.2975963-4.2101864-.7520042-1.2070964-1.7303877-2.1546218-2.9356689-2.841798-1.2060592-.6874356-2.5316611-1.0318017-3.9781024-1.0318017s-2.7653011.3443661-3.9565795,1.0318017c-1.1915377.6871763-2.1634384,1.6419623-2.9146647,2.862543-.7520042,1.2210993-1.1845363,2.6177526-1.2976029,4.1894415Z"/>
  </g>
  <g>
    <path d="M52.9099596,98.7208157c-1.8439662,0-3.4960417-.4792082-4.9564858-1.4384026-1.461222-.9586757-2.6167154-2.143212-3.4675174-3.5541276v13.6294283h-2.8931418v-31.1436067h2.5951925v4.3136518c.8789374-1.3821319,2.0563426-2.5036554,3.5314378-3.3637927,1.4744469-.8601372,3.0485992-1.2903355,4.7225865-1.2903355,1.5316252,0,2.9357986.317657,4.2121313.9519336,1.2763327.6347953,2.3825568,1.4884497,3.3185428,2.5601854.9359859,1.0714764,1.6659487,2.2915384,2.1911847,3.6596675.5244581,1.3681291.787141,2.7852681.787141,4.2519356,0,2.0594543-.4187886,3.9560609-1.2551988,5.6905975-.8369288,1.7350553-2.0069437,3.12367-3.5100446,4.1674-1.5037491,1.04373-3.2620128,1.5654653-5.2758283,1.5654653ZM52.1016847,96.1681503c1.2192841,0,2.3115054-.2458276,3.2761453-.7392979.963862-.4924331,1.7935301-1.1611982,2.4888747-2.0062954.6946963-.8448379,1.2265448-1.7954749,1.5955455-2.8511333.3682228-1.0556583.5531121-2.147361.5531121-3.2740708,0-1.1827211-.2061529-2.3089123-.6170324-3.3790921-.4113982-1.0704391-.9997767-2.0138155-1.7656541-2.8306476-.7658774-.8165729-1.6453334-1.4645931-2.6378493-1.9432826-.9931642-.4786896-2.0708641-.7180344-3.2334885-.7180344-.7378717,0-1.5037491.1410656-2.2975026.4221596-.7944017.2818719-1.5528887.682768-2.276239,1.2026881-.7233503.5204388-1.3262502,1.1041497-1.8083109,1.7516512-.4825793.6475016-.7803989,1.3362337-.8933292,2.067493v6.7695939c.453277,1.0408776,1.063697,1.9769932,1.8294448,2.8065316.7657478.8297978,1.6520755,1.4913022,2.6591129,1.9832167,1.0065188.4926924,2.0489522.73852,3.1271707.73852Z"/>
    <path d="M63.5036246,91.9561487c0-1.3808353.3968767-2.5713358,1.1912784-3.5725387.7937534-1.0006842,1.8932355-1.7757672,3.2974089-2.3255082,1.4039141-.5492224,3.0273356-.8243522,4.8714315-.8243522,1.0776998,0,2.1977972.0850543,3.3611996.2554221,1.1627541.1701085,2.1977972.4252714,3.1057775.7657478v-1.8667857c0-1.8600436-.5529824-3.3404546-1.6592066-4.4399367-1.1062241-1.0997414-2.6378493-1.6494824-4.5950051-1.6494824-1.1912784,0-2.3612933.2201557-3.5100446.6594299-1.1487513.4400521-2.3474201,1.0849606-3.5952285,1.9360219l-1.1062241-2.0423398c1.4467005-.9923863,2.8646175-1.7371298,4.254788-2.2337119,1.3893926-.4958042,2.8079578-.7444842,4.2545287-.7444842,2.7230332,0,4.8781736.775083,6.466977,2.3255082,1.5882848,1.550166,2.3825568,3.6928594,2.3825568,6.4262651v10.18862c0,.3949319.0851839.6840645.2554221.8668794.1701085.1833334.4392742.2891327.8082749.3171383v2.2975026c-.3124707.0277464-.5816364.05653-.8082749.0850543-.2274165.0280057-.397525.0280057-.5105849,0-.7093474-.0285243-1.2484567-.2554221-1.6168091-.6806935-.3690007-.4255307-.5676335-.8788077-.5956392-1.3616463l-.0425271-1.6165498c-.9931642,1.2763327-2.2834997,2.2622362-3.8717845,2.9569325-1.5888034.6946963-3.2054828,1.0421741-4.8501679,1.0421741-1.4186949,0-2.7017697-.3031355-3.8505209-.9086286-1.1487513-.606271-2.0420804-1.4233625-2.6803764-2.4523117-.6381663-1.0284306-.9572495-2.1631791-.9572495-3.4037267ZM78.352337,93.6414161c.3116928-.3936353.5529824-.7724899.7232206-1.1381195.1701085-.365111.2551628-.6882135.2551628-.9700855v-3.2043159c-.9645102-.3648517-1.9642869-.6459457-2.9994596-.8427634-1.0356913-.1968177-2.0781248-.2950968-3.127041-.2950968-2.0708641,0-3.7442031.4073788-5.0205358,1.2223958s-1.914499,1.9251308-1.914499,3.3306008c0,.8157949.2126357,1.5815427.6381663,2.2982805.425401.7164785,1.0489162,1.3069315,1.8719719,1.7708403.8222777.4641681,1.7869119.6954743,2.8931418.6954743,1.3893926,0,2.6869889-.2665725,3.8930481-.8012735,1.2052813-.5336637,2.1338768-1.2223958,2.7868239-2.0659371Z"/>
    <path d="M96.9875204,78.6817182c-1.9292798.0570486-3.6238824.5956392-5.0843265,1.6168091-1.461222,1.0209106-2.4890043,2.425084-3.0846435,4.2120016v13.7850154h-2.8931418v-22.0814372h2.7229036v5.2331715c.7658774-1.5597605,1.7796569-2.8220903,3.0421164-3.7867302,1.2616816-.963862,2.6020643-1.5029712,4.0206295-1.6168091.2831685-.0277464.5318485-.0425271.7446138-.0425271.2126357,0,.3894863.0147808.5318485.0425271v2.637979Z"/>
    <path d="M108.9428317,97.4019558c-.2274165.0850543-.5816364.2414193-1.063697.4680578-.4825793.2274165-1.063697.4255307-1.7443905.5956392s-1.4186949.2551628-2.2124483.2551628c-.8227963,0-1.5955455-.1568836-2.3187661-.469873s-1.2975963-.7903824-1.7231269-1.4314011c-.425401-.6407595-.6381663-1.4311418-.6381663-2.3711471v-15.937044h-3.0632503v-2.2972433h3.0632503v-7.4881469h2.8931418v7.4881469h5.1055901v2.2972433h-5.1055901v15.135252c.05653.7979024.3469592,1.3966534.8723249,1.7957342.5243285.3988216,1.1274877.5982323,1.8081812.5982323.7937534,0,1.516974-.1343235,2.1696618-.4042671.6524285-.2691657,1.0491756-.4605378,1.1912784-.5743756l.7660071,2.3400297Z"/>
    <path d="M128.6414528,98.2955443h-2.8931418v-12.3020112c0-2.5925994-.3830035-4.4871314-1.1487513-5.6851519-.7660071-1.1980205-1.9718069-1.7970308-3.6163624-1.7970308-1.1347484,0-2.2549754.2746112-3.3611996.8230557-1.1062241.5492224-2.0781248,1.2944845-2.9146647,2.2370829-.8367992.9425984-1.4396991,2.0190017-1.8079219,3.2289506v13.4951048h-2.8934011v-22.0814372h2.637979v5.0322048c.5956392-1.0714764,1.3756491-2.0088885,2.3400297-2.8132737.963862-.8036073,2.0560833-1.4314011,3.2761453-1.8826037,1.2190248-.4506839,2.4816139-.6768038,3.7867302-.6768038,1.2190248,0,2.2549754.2261199,3.1057775.6768038.850802.4512025,1.5317548,1.0927399,2.0420804,1.9251308.5105849.8323909.879067,1.8335938,1.1062241,3.0036086.2266385,1.1705335.3404764,2.4748718.3404764,3.9127558v12.9036146Z"/>
    <path d="M141.8303103,98.7208157c-1.5888034,0-3.0632503-.3036541-4.4248966-.9112217-1.361387-.6075676-2.5386625-1.441255-3.5313081-2.5010623-.9931642-1.059548-1.7653947-2.2814252-2.3187661-3.6661503-.5528528-1.384725-.8295385-2.8685072-.8295385-4.4513464,0-2.055046.4747999-3.9410208,1.425437-5.6587021.9498591-1.7171628,2.2614582-3.0894408,3.9353159-4.1170935,1.6733391-1.0276527,3.5738353-1.5416087,5.7012293-1.5416087,2.183924,0,4.090903.5212167,5.7224928,1.5636502,1.6305526,1.0421741,2.9144053,2.4157487,3.8502616,4.1202052.9361156,1.7044565,1.4041734,3.5707235,1.4041734,5.5988011v.6547623c0,.2115984-.0147808.3736683-.0425271.4859503h-18.9756597c.1415842,1.5810241.5883785,2.9849382,1.3401234,4.2122609.7514856,1.2270634,1.729869,2.2010386,2.9359282,2.9203695,1.2052813.7193309,2.5168804,1.0789964,3.9353159,1.0789964,1.4467005,0,2.8148296-.3684821,4.1059431-1.1062241,1.2903355-.7372235,2.1909254-1.7018634,2.7015104-2.8931418l2.5101382.6806935c-.4537957,1.0496942-1.1487513,1.9995533-2.0846076,2.8506146-.9361156.850802-2.0355976,1.5102319-3.2974089,1.9782897-1.2623299.4680578-2.6167154.701957-4.0631566.701957ZM133.6614699,86.2123923h16.3802079c-.1135786-1.5994352-.54637-3.0028307-1.2975963-4.2101864-.7520042-1.2070964-1.7303877-2.1546218-2.9356689-2.841798-1.2060592-.6874356-2.5316611-1.0318017-3.9781024-1.0318017s-2.7653011.3443661-3.9565795,1.0318017c-1.1915377.6871763-2.1634384,1.6419623-2.9146647,2.862543-.7520042,1.2210993-1.1845363,2.6177526-1.2975963,4.1894415Z"/>
    <path d="M165.740933,78.6817182c-1.9292798.0570486-3.6236231.5956392-5.0840672,1.6168091-1.4614813,1.0209106-2.489134,2.425084-3.0847732,4.2120016v13.7850154h-2.8931418v-22.0814372h2.7230332v5.2331715c.7657478-1.5597605,1.7793976-2.8220903,3.0419868-3.7867302,1.2618112-.963862,2.6019346-1.5029712,4.0206295-1.6168091.2831685-.0277464.5318485-.0425271.7447435-.0425271.2126357,0,.3894863.0147808.5315892.0425271v2.637979Z"/>
    <path d="M174.3350447,98.7208157c-1.8151826,0-3.5033024-.2976899-5.0628036-.8933292-1.5602791-.5956392-2.9079225-1.5029712-4.0418931-2.7230332l1.1912784-2.0420804c1.2478084,1.1632727,2.5028775,2.006814,3.7654667,2.5314018,1.2618112.5251064,2.6019346.7870113,4.0203702.7870113,1.729869,0,3.1340424-.3443661,4.2122609-1.0328389,1.0776998-.6887321,1.6165498-1.6800812,1.6165498-2.9737877,0-.8741401-.2624235-1.5442018-.7870113-2.0096665-.5251064-.4652054-1.2763327-.8456158-2.2549754-1.1420092-.9783834-.2963934-2.1483983-.6135317-3.5100446-.9519336-1.5317548-.4229375-2.8153482-.8676573-3.8505209-1.3328627-1.0356913-.4654647-1.8154419-1.0577328-2.3400297-1.7770638-.5251064-.7193309-.7870113-1.6564838-.7870113-2.8132737,0-1.4386619.36174-2.6299403,1.0849606-3.5753911.7232206-.9446729,1.7158662-1.6637445,2.978196-2.1577335,1.2618112-.493211,2.6729861-.7405945,4.2335245-.7405945,1.701604,0,3.2048346.2699436,4.5096915.8082749,1.3043384.5391092,2.3680354,1.2911135,3.191091,2.2549754l-1.4041734,1.9572855c-.794272-.9075913-1.7376484-1.5810241-2.8290918-2.0210762-1.0922213-.4392742-2.3047633-.6594299-3.6378853-.6594299-.9081099,0-1.7729148.1203207-2.5954518.3596655-.8227963.2393448-1.4962291.6342767-2.0208169,1.1840177-.5251064.549741-.7870113,1.3035604-.7870113,2.2614582,0,.7898637.1981142,1.4028768.5956392,1.8395579.3970064.437459.9923863.8036073,1.7869176,1.099482.7937534.2966527,1.7721369.6135317,2.9356689.951415,1.6733391.4514618,3.1337831.9094065,4.3821101,1.3746119,1.2478084.4654647,2.2124483,1.0644749,2.8934011,1.7970308.6806935.7325558,1.0211699,1.7617644,1.0211699,3.0858104,0,2.0584171-.7805285,3.665113-2.3400297,4.8203471-1.5605384,1.1562713-3.6166217,1.7337587-6.1695464,1.7337587Z"/>
  </g>
  <g>
    <path class="st0" d="M172.8629618,54.3737282c-.1587493-1.2296104-.308447-2.5387115-.6057537-3.9470309-.1912418-.9928791-.4606978-1.9959121-.8014052-3.0872552-1.1372388-2.9698179-2.2062433-5.8499332-4.8012365-7.5622899-1.2632634-.811095-2.8721082-1.4264804-4.193394-1.1986265-.5730291.0852929-1.0908209.339431-1.5380575.6833877,0,0-.0796067-.0100959-.0705552-.0895866q-.0090515.0794907.0705552.0895866c-1.065291.7448334-2.034497,1.9862804-2.9143485,3.1600153,0,0-.2012216.2963203-.3899104.5118735-1.9818127,2.8007406-5.6321171,4.8169026-9.5943499,6.1466597-2.272853.746458-4.6735873,1.2347164-6.5460858,2.6003313-1.7030731,1.3048075-3.014147,3.3066378-3.9192962,5.2823001-.6735239,1.4413341-1.1906194,2.9041946-1.705394,4.3667069-.4293657-1.0224705-.9265015-2.1358041-1.1864418-3.2169933-.4934224-1.7575561-.5790634-3.5408162-.3490627-5.2831125.4699813-3.563677,2.1753754-6.7227639,3.9608403-9.8705365-.3762172-1.4193436-.6732918-2.8277211-.7345634-4.2056947-.0102119-4.190899,2.56575-8.44394,5.7073141-11.4931326,2.9628552-2.9106351,6.4330582-4.7894,9.9559454-7.0639356,3.5126753-2.1949289,6.9963395-4.7965947,8.9147917-8.3302162.8536254-1.578325,1.3990358-3.2782649,1.8666963-4.9902154-.0749649,2.4071748-.1522507,4.8147557-.7034634,7.1585121-.3980336,1.7995063-1.0362798,3.5700595-2.1134074,5.0371556-.8926164,1.2529354-1.998291,2.3154414-3.1151059,3.4570899,2.2401283-1.7189713,4.5603276-3.426222,6.3773567-5.6029899,2.0876455-2.3826313,3.5235836-5.336435,4.5763418-8.4195126.7786604-2.2350804,1.2509627-4.587366,1.7118925-6.8639324.3571858,2.7863511.6243209,5.6419809.3381545,8.4232841-.303341,2.2960039-1.0126067,4.6199166-2.1551836,6.5633764-1.254444,2.1721841-2.9503224,4.0421877-4.7162918,5.8229528,1.1386313-.0909211,2.3691701-.2507147,3.4511716-.5114673,3.3230582-.7688547,6.2970537-2.5513024,9.1926029-4.3447744-1.0406895,1.7955028-2.1642351,3.5813739-3.5031597,5.1774537-2.1867477,2.5305884-5.1041134,4.4816492-8.0555962,6.106044-.427741.1855556-.9455328.4395776-1.381397.7042757,1.7086433.466558,4.2291674,1.3520235,5.7189502,2.273419,3.2059659,3.3030632,10.9840989,7.9638494,7.5431109,13.8180458-5.4662819,9.2998544-3.5630388,16.6093146-4.2922641,8.6988324Z"/>
    <path class="st1" d="M166.5413447,68.5881076c20.7990755,2.1643784,18.5133716-19.1396745,9.7958923-30.2448969-2.1812553-2.7236863-4.7214845-4.8166519-6.7251219-6.4863606,14.8059892,23.0109639-27.6087879,27.2015563-34.5536112,38.8690146,4.8510952-4.5665183,17.1400458-3.630291,31.4828409-2.1377571Z"/>
  </g>
</svg>