<?xml version="1.0" encoding="UTF-8"?>
<svg id="Layer_1" xmlns="http://www.w3.org/2000/svg" version="1.1" viewBox="0 0 26 25">
  <!-- Generator: Adobe Illustrator 29.7.1, SVG Export Plug-In . SVG Version: 2.1.1 Build 8)  -->
  <defs>
    <style>
      .st0 {
        fill: #fff;
      }
    </style>
  </defs>
  <path class="st0" d="M21.7391239,8.4060168v-3.1060644c0-.6595892-.5618018-1.1992526-1.2484464-1.1992526h-3.2334763l-3.3832897-3.2499746c-.4851003-.4669418-1.272411-.4677171-1.7585066-.0017316-.0006013.0005764-.0012025.0011537-.0018026.0017316l-3.3832897,3.2499746h-3.2334763c-.6866457,0-1.2484464.5396634-1.2484464,1.1992526v3.1060644l-3.3832894,3.2499746c-.4860959.4659854-.486903,1.2222729-.0018026,1.6892144.0006001.0005776.001201.0011551.0018026.0017316l3.3832894,3.2499746v3.1060644c0,.659588.5618006,1.1992526,1.2484464,1.1992526h3.2334763l3.3832897,3.2499757c.249689.2398514.5618006.3477843.886397.3477843s.6367079-.1199257.886397-.3477843l3.3832897-3.2499734h3.2334763c.6866446,0,1.2484464-.5396646,1.2484464-1.1992526v-3.1060644l3.3832909-3.2499746c.4860956-.4659854.4869028-1.2222729.0018026-1.6892144-.0006001-.0005776-.0012001-.0011551-.0018026-.0017316l-3.3832885-3.2499746-.0124871-.0000023ZM19.6042818,15.2537491c-.2336932.2263215-.3639699.532704-.3620506.8514694v2.3985052h-2.4968927c-.3370811,0-.6491927.1319185-.886397.3477843l-2.8589421,2.7462872-2.8589421-2.7462895c-.2356053-.2244847-.5545558-.349628-.886397-.3477843h-2.4968927v-2.3985052c0-.3237987-.1373293-.6236119-.3620494-.8514694l-2.8589421-2.7462884,2.8589421-2.7462884c.233692-.2263215.3639675-.5327029.3620494-.8514671v-2.3985052h2.4968927c.3370811,0,.6491927-.1319179.886397-.3477832l2.8589421-2.746289,2.8589421,2.7462884c.2372043.2278581.5493159.3477832.886397.3477832h2.4968927v2.3985058c0,.3237987.1373299.6236119.3620506.8514694l2.8589433,2.7462884-2.8589433,2.7462884Z"/>
  <path class="st0" d="M8.0062139,12.4954679c0,2.6503483,2.234719,4.7970104,4.9937855,4.7970104V7.6984576c-2.7590665,0-4.9937855,2.1466621-4.9937855,4.7970104"/>
</svg>