<?xml version="1.0" encoding="UTF-8"?>
<svg id="Layer_1" xmlns="http://www.w3.org/2000/svg" xmlns:xlink="http://www.w3.org/1999/xlink" version="1.1" viewBox="0 0 116.1209646 142.4123383">
  <!-- Generator: Adobe Illustrator 29.7.1, SVG Export Plug-In . SVG Version: 2.1.1 Build 8)  -->
  <defs>
    <style>
      .st0 {
        fill: url(#radial-gradient);
        fill-rule: evenodd;
      }

      .st1 {
        fill: url(#radial-gradient1);
      }
    </style>
    <radialGradient id="radial-gradient" cx="-22.1682718" cy="140.8712643" fx="-22.1682718" fy="140.8712643" r="187.419507" gradientUnits="userSpaceOnUse">
      <stop offset=".126374" stop-color="#fad200"/>
      <stop offset=".1915597" stop-color="#facb01"/>
      <stop offset=".2846093" stop-color="#fab806"/>
      <stop offset=".394445" stop-color="#fa990d"/>
      <stop offset=".5171021" stop-color="#fa6e17"/>
      <stop offset=".6486851" stop-color="#fa3824"/>
      <stop offset=".736264" stop-color="#fb102e"/>
      <stop offset=".774119" stop-color="#f30f30"/>
      <stop offset=".8328008" stop-color="#dd0e37"/>
      <stop offset=".9049564" stop-color="#b90c43"/>
      <stop offset=".9871243" stop-color="#880954"/>
      <stop offset="1" stop-color="#800957"/>
    </radialGradient>
    <radialGradient id="radial-gradient1" cx="89.245596" cy="52.6934232" fx="89.245596" fy="52.6934232" r="108.3263019" xlink:href="#radial-gradient"/>
  </defs>
  <path class="st0" d="M89.5242807,115.5641312c-.3464126-2.6831784-.6730736-5.5398163-1.3218376-8.6129621-.4173158-2.1665982-1.0053056-4.3553536-1.748776-6.7368137-2.4816108-6.4805494-4.814325-12.7653554-10.4769557-16.5019523-2.7566138-1.7699203-6.2673335-3.1127756-9.1505601-2.6155672-1.250428.1861208-2.3803206.7406849-3.356252,1.4912455,0,0-.1737128-.0220306-.1539612-.1954902q-.0197516.1734595.1539612.1954902c-2.324611,1.6253285-4.4395511,4.3343359-6.3595076,6.8955862,0,0-.4390932.6466116-.850838,1.1169781-4.3245867,6.1115997-12.290051,10.5111412-20.9361857,13.4128533-4.9596765,1.6288736-10.1984076,2.6943203-14.2844558,5.6742791-3.7163388,2.8472686-6.5772816,7.2155367-8.5524412,11.5267024-1.4697213,3.1451885-2.5980946,6.3373503-3.7214033,9.5287525-.9369347-2.2311707-2.0217531-4.6606171-2.5889785-7.0199199-1.0767152-3.8352282-1.2635957-7.7265459-.7617026-11.528475,1.0255637-7.7764314,4.746967-14.6699917,8.643096-21.5388626-.8209574-3.0972022-1.4692149-6.1704747-1.602918-9.177402-.0222839-9.1451157,5.5988179-18.4258337,12.4541412-25.0795895,6.4653559-6.3514044,14.037814-10.4511267,21.7252366-15.414475,7.6651387-4.7896355,15.2669711-10.4668267,19.4532966-18.1776727,1.8627275-3.4441213,3.0528878-7.153623,4.0733869-10.8893336-.1635837,5.2527851-.332232,10.5064565-1.5350536,15.6208538-.8685638,3.9267693-2.2613046,7.7903588-4.6117445,10.9917634-1.9478113,2.7340767-4.3605447,5.0526103-6.7975879,7.5438437,4.8882669-3.7510307,9.9512594-7.4764857,13.9162658-12.2264914,4.5555284-5.1992279,7.6889419-11.6448322,9.9862045-18.3725298,1.6991437-4.8772516,2.7297719-10.010261,3.735584-14.9780407.7794284,6.0801997,1.3623537,12.3115752.7378994,18.3807596-.6619317,5.010195-2.2096465,10.0812907-4.7029057,14.3221864-2.7373687,4.7400033-6.4380075,8.8206071-10.2915946,12.7064805,2.4846495-.1984023,5.1698537-.5470939,7.5309292-1.1160918,7.2513681-1.6777462,13.7410336-5.5672913,20.0595187-9.4808929-2.2709271,3.918033-4.7226573,7.8150483-7.6443742,11.2979131-4.7717831,5.5220905-11.1378745,9.7795724-17.5784143,13.3242243-.9333895.4049077-2.0632821.9592186-3.0143975,1.5368261,3.7284936,1.0180935,9.2286225,2.9503005,12.4795327,4.9609117,6.9958568,7.2077364,23.9688083,17.3782102,16.4601011,30.1528685-11.9281759,20.2935562-7.7750386,36.2437995-9.3663083,18.9820438Z"/>
  <path class="st1" d="M15.8637873,142.4123383c16.4465942-.0004883,32.8931274-.0033569,49.3397217-.003479,11.5338135-.000061,23.0675659.0021973,34.6013794.0024414,18.2029419-11.6714478,11.8659668-43.2733154-2.6992798-61.8279419-4.7597656-5.9434814-10.3029175-10.5106201-14.6751099-14.1541138,28.2991333,43.9814453-39.194458,56.4556885-66.5667114,75.9830933Z"/>
</svg>