<?xml version="1.0" encoding="UTF-8"?>
<svg id="Layer_1" xmlns="http://www.w3.org/2000/svg" xmlns:xlink="http://www.w3.org/1999/xlink" version="1.1" viewBox="0 0 719.9922759 927.6886693">
  <!-- Generator: Adobe Illustrator 29.7.1, SVG Export Plug-In . SVG Version: 2.1.1 Build 8)  -->
  <defs>
    <style>
      .st0 {
        fill: url(#radial-gradient);
        fill-rule: evenodd;
      }

      .st1 {
        fill: url(#radial-gradient1);
      }
    </style>
    <radialGradient id="radial-gradient" cx="-97.4306952" cy="834.4406766" fx="-97.4306952" fy="834.4406766" r="1068.5780698" gradientUnits="userSpaceOnUse">
      <stop offset=".126374" stop-color="#f5d30c"/>
      <stop offset=".201388" stop-color="#f4cc0d"/>
      <stop offset=".3084832" stop-color="#f2b913"/>
      <stop offset=".4348521" stop-color="#f09a1c"/>
      <stop offset=".5758883" stop-color="#ec6f29"/>
      <stop offset=".7274886" stop-color="#e83939"/>
      <stop offset=".736264" stop-color="#e8363a"/>
      <stop offset=".7759631" stop-color="#e0343b"/>
      <stop offset=".837493" stop-color="#ca2f40"/>
      <stop offset=".9131656" stop-color="#a62649"/>
      <stop offset=".9993537" stop-color="#751b54"/>
      <stop offset="1" stop-color="#751b55"/>
    </radialGradient>
    <radialGradient id="radial-gradient1" cx="537.7988908" cy="331.6920099" fx="537.7988908" fy="331.6920099" r="617.6257343" xlink:href="#radial-gradient"/>
  </defs>
  <path class="st0" d="M539.3878201,690.1512807c-1.9750821-15.298224-3.83755-31.5854328-7.5364976-49.1070679-2.3793387-12.352926-5.7317808-24.8321822-9.9706998-38.4101501-14.1489803-36.9490513-27.4490217-72.7820657-59.7346846-94.0863874-15.7169183-10.0912548-35.733394-17.7475857-52.172199-14.9127364-7.1293535,1.0611735-13.5714709,4.2230375-19.1357739,8.5023821,0,0-.9904286-.1256083-.8778143-1.1145931q-.1126143.9889848.8778143,1.1145931c-13.2538407,9.2668602-25.3122369,24.712349-36.2589276,39.315396,0,0-2.5035032,3.6866756-4.8510789,6.3684849-24.6567638,34.8454733-70.0721028,59.929594-119.368305,76.4737945-28.2777477,9.287073-58.1465337,15.36175-81.4432629,32.3520765-21.1888198,16.2337892-37.5005728,41.1396039-48.762006,65.7198476-8.3796614,17.9323887-14.8131161,36.1325974-21.2176953,54.3284747-5.3419619-12.7210883-11.5270876-26.5726512-14.7611402-40.0242888-6.1389249-21.8666715-7.2044297-44.0531388-4.3428707-65.729954,5.8472827-44.3375621,27.0649779-83.641408,49.2788769-122.804486-4.6807137-17.6587936-8.3767738-35.1811506-9.1390862-52.325239-.1270521-52.1411579,31.921832-105.0554565,71.007668-142.9920488,36.8624249-36.2127268,80.0370275-59.5874197,123.8671032-87.8861021,43.7030237-27.3082538,87.045104-59.6769336,110.9135674-103.6405585,10.6203978-19.6367633,17.4061333-40.7866012,23.2245404-62.0858697-.9326777,29.9489155-1.8942308,59.9028842-8.7521549,89.0627775-4.9521431,22.3885956-12.8928973,44.4169697-26.2940029,62.6698761-11.1055057,15.5884224-24.8617796,28.8076125-38.7566557,43.0114562,27.8706036-21.3866168,56.7374108-42.6274124,79.3440162-69.7097157,25.9734852-29.6435574,43.8387384-66.3933679,56.9366516-104.7515422,9.6877202-27.8077994,15.5638783-57.07381,21.2985466-85.3977585,4.4439348,34.6664454,7.7675014,70.1948236,4.207156,104.7984648-3.7740239,28.5657805-12.5983675,57.4787885-26.8137614,81.6583851-15.6071915,27.0252742-36.7064973,50.2909622-58.6778424,72.4463883,14.1663055-1.1311965,29.4760797-3.1192726,42.9378237-6.3634317,41.3438978-9.5657213,78.3449249-31.7420822,114.3699612-54.0556015-12.9477607,22.3387854-26.9263757,44.5577376-43.5846343,64.4153983-27.2064677,31.4843686-63.5029334,55.7585324-100.2238685,75.9684738-5.3217491,2.3085938-11.7638664,5.469014-17.1866797,8.7622613,21.2581209,5.8046913,52.6172743,16.8212289,71.1524384,28.2847905,39.8870922,41.0951303,136.658896,99.0823989,93.8477717,171.917505-68.0088609,115.7043334-44.3296214,206.6451347-53.402294,108.226705Z"/>
  <path class="st1" d="M460.7372888,866.9997778c258.7721325,26.9281587,230.3344999-238.1266597,121.8757986-376.2925163-27.2605793-33.3434484-58.7424476-59.9264752-83.670745-80.7001908,184.2090235,286.2913881-343.495312,338.4287311-429.8994759,483.5896567,60.3550017-56.8144327,213.2482376-45.1663414,391.6944223-26.5969496Z"/>
</svg>