<?xml version="1.0" encoding="UTF-8"?>
<svg id="Layer_1" xmlns="http://www.w3.org/2000/svg" version="1.1" viewBox="0 0 21 21">
  <!-- Generator: Adobe Illustrator 29.7.1, SVG Export Plug-In . SVG Version: 2.1.1 Build 8)  -->
  <path d="M16.5665053,20.4900041h.3498481c.4697948-.0199918.899608-.2598871,1.169491-.6397209l2.1390683-3.0886557c.2298995-.3298563.3198605-.7396778.2398953-1.1395034s-.3098646-.7396778-.6397209-.9695773l-4.6379805-3.0886557c-.2451421-.1647947-.5342618-.2518788-.8296388-.2498912-.4098215,0-.809648.1599302-1.0995218.4797907l-1.4693607,1.5893083c-.6896994-.4298132-1.6092992-1.0695341-2.3589728-1.8192078s-1.3893956-1.6792693-1.8192078-2.3589728l1.5893083-1.4693607c.539765-.4997825.6397219-1.3194258.2298995-1.9291601L6.3409568,1.1684146c-.2199041-.3298563-.5697522-.5697519-.9695782-.6397214-.3934754-.0793282-.8022421.0074893-1.1295085.2398956L1.1532149,2.9076573c-.3898302.2698825-.6197301.6996952-.6397214,1.169491-.0299869.6896998-.1599304,6.8969974,4.6779636,11.7348917,4.3481072,4.3481077,9.8057316,4.6879599,11.3750482,4.6879599v-.0099959ZM5.3813745,8.5452037c-.1599302.1499344-.2099087.3898307-.1099523.5897434.0499784.089961,1.1494997,2.2390252,2.7388081,3.8383294,1.5993042,1.5993033,3.7483684,2.698825,3.8383294,2.7488025.1999128.0999569.4398081.0599734.5897434-.1099527l1.9891339-2.1490642,3.8583211,2.5688815-1.6992611,2.4589307c-1.1594951,0-6.127333-.2398953-9.9856532-4.0982165S2.5026275,5.5565044,2.5026275,4.4070047l2.4589297-1.6992601,2.5688815,3.8583202-2.1490646,1.9891339.0000005-.0099949Z"/>
</svg>