<?xml version="1.0" encoding="UTF-8"?>
<svg id="Layer_2" data-name="Layer 2" xmlns="http://www.w3.org/2000/svg" viewBox="0 0 14 14">
  <g id="Layer_1-2" data-name="Layer 1">
    <g>
      <path d="M6.3,9.1h1.4v1.4h-1.4v-1.4Z"/>
      <path d="M5.27,4.22c-.46.46-.72,1.08-.72,1.73h1.4c0-.28.11-.55.31-.74.4-.4,1.08-.4,1.48,0,.2.2.31.46.31.74s-.11.55-.31.74c-.2.2-.46.31-.74.31-.38,0-.7.31-.7.7v.7h1.4v-.1c.38-.11.74-.32,1.03-.62.46-.46.72-1.08.72-1.73s-.25-1.27-.72-1.73c-.92-.92-2.54-.92-3.46,0h0Z"/>
      <path d="M7,0C3.14,0,0,3.14,0,7c0,1.48.48,2.93,1.35,4.13l-1.22,1.77c-.15.22-.17.49-.04.72.12.23.36.38.62.38h6.3c3.86,0,7-3.14,7-7S10.85,0,7,0ZM7,12.6H2.04l.76-1.1c.18-.26.16-.62-.04-.85-.87-1.01-1.35-2.31-1.35-3.65C1.41,3.91,3.92,1.4,7,1.4s5.6,2.51,5.6,5.6-2.51,5.6-5.6,5.6h0Z"/>
    </g>
  </g>
</svg>