<?xml version="1.0" encoding="UTF-8"?>
<svg id="Layer_1" xmlns="http://www.w3.org/2000/svg" version="1.1" viewBox="0 0 19 21">
  <!-- Generator: Adobe Illustrator 29.7.1, SVG Export Plug-In . SVG Version: 2.1.1 Build 8)  -->
  <path d="M9.5,10.5c2.7600002,0,5-2.2399998,5-5S12.2600002.5,9.5.5s-5,2.2399998-5,5,2.2399998,5,5,5M9.5,2.5c1.6499996,0,3,1.3499999,3,3s-1.3500004,3-3,3-3-1.3500004-3-3,1.3500004-3,3-3M1.5,20.5h16c.5499992,0,1-.4500008,1-1v-1c0-3.8600006-3.1399994-7-7-7h-4c-3.8599997,0-7,3.1399994-7,7v1c0,.5499992.45,1,1,1M7.5,13.5h4c2.7600002,0,5,2.2399998,5,5H2.5c0-2.7600002,2.2399998-5,5-5"/>
</svg>